<svg width="56" height="60" viewBox="0 0 56 60" fill="none" xmlns="http://www.w3.org/2000/svg">
<mask id="path-1-outside-1_9574_17705" maskUnits="userSpaceOnUse" x="0" y="0" width="56" height="60" fill="black">
<rect fill="white" width="56" height="60"/>
<path d="M0 0H56V56H0V0Z"/>
</mask>
<path d="M56 56V52H0V56V60H56V56Z" fill="#00C1DB" mask="url(#path-1-outside-1_9574_17705)"/>
<path d="M44.3334 28.0003C44.3334 37.021 37.0207 44.3337 28 44.3337C18.9794 44.3337 11.6667 37.021 11.6667 28.0003C11.6667 18.9797 18.9794 11.667 28 11.667C37.0207 11.667 44.3334 18.9797 44.3334 28.0003Z" fill="#00C1DB" fill-opacity="0.3"/>
<path d="M12.0065 24.6697C12.6982 21.3304 14.4094 18.3643 16.8001 16.1113M39.1999 16.1113C41.5906 18.3643 43.3018 21.3304 43.9936 24.6697M32.9759 43.5616C31.4071 44.0628 29.7351 44.3333 28 44.3333C26.2649 44.3333 24.593 44.0628 23.0241 43.5616M33.8334 12.8333C33.8334 16.055 31.2217 18.6667 28 18.6667C24.7784 18.6667 22.1667 16.055 22.1667 12.8333C22.1667 9.61167 24.7784 7 28 7C31.2217 7 33.8334 9.61167 33.8334 12.8333ZM19.8334 36.1667C19.8334 39.3883 17.2217 42 14 42C10.7784 42 8.16669 39.3883 8.16669 36.1667C8.16669 32.945 10.7784 30.3333 14 30.3333C17.2217 30.3333 19.8334 32.945 19.8334 36.1667ZM47.8334 36.1667C47.8334 39.3883 45.2217 42 42 42C38.7784 42 36.1667 39.3883 36.1667 36.1667C36.1667 32.945 38.7784 30.3333 42 30.3333C45.2217 30.3333 47.8334 32.945 47.8334 36.1667Z" stroke="#101828" stroke-width="2.33333" stroke-linecap="round" stroke-linejoin="round"/>
</svg>