<svg width="57" height="60" viewBox="0 0 57 60" fill="none" xmlns="http://www.w3.org/2000/svg">
<mask id="path-1-outside-1_9574_17698" maskUnits="userSpaceOnUse" x="0.666626" y="0" width="56" height="60" fill="black">
<rect fill="white" x="0.666626" width="56" height="60"/>
<path d="M0.666626 0H56.6666V56H0.666626V0Z"/>
</mask>
<path d="M56.6666 56V52H0.666626V56V60H56.6666V56Z" fill="#00C1DB" mask="url(#path-1-outside-1_9574_17698)"/>
<path d="M9.99996 27.9997C9.99996 25.4223 12.0893 23.333 14.6666 23.333C17.244 23.333 19.3333 25.4223 19.3333 27.9997V39.6663C19.3333 42.2437 17.244 44.333 14.6666 44.333C12.0893 44.333 9.99996 42.2437 9.99996 39.6663V27.9997Z" fill="#00C1DB" fill-opacity="0.3"/>
<path d="M24 20.9997C24 18.4223 26.0893 16.333 28.6666 16.333C31.244 16.333 33.3333 18.4223 33.3333 20.9997V39.6663C33.3333 42.2437 31.244 44.333 28.6666 44.333C26.0893 44.333 24 42.2437 24 39.6663V20.9997Z" fill="#00C1DB" fill-opacity="0.3"/>
<path d="M38 13.9997C38 11.4223 40.0893 9.33301 42.6666 9.33301C45.244 9.33301 47.3333 11.4223 47.3333 13.9997V39.6663C47.3333 42.2437 45.244 44.333 42.6666 44.333C40.0893 44.333 38 42.2437 38 39.6663V13.9997Z" fill="#00C1DB" fill-opacity="0.3"/>
<path d="M9.99996 27.9997C9.99996 25.4223 12.0893 23.333 14.6666 23.333C17.244 23.333 19.3333 25.4223 19.3333 27.9997V39.6663C19.3333 42.2437 17.244 44.333 14.6666 44.333C12.0893 44.333 9.99996 42.2437 9.99996 39.6663V27.9997Z" stroke="#101828" stroke-width="2.33333" stroke-linecap="round" stroke-linejoin="round"/>
<path d="M24 20.9997C24 18.4223 26.0893 16.333 28.6666 16.333C31.244 16.333 33.3333 18.4223 33.3333 20.9997V39.6663C33.3333 42.2437 31.244 44.333 28.6666 44.333C26.0893 44.333 24 42.2437 24 39.6663V20.9997Z" stroke="#101828" stroke-width="2.33333" stroke-linecap="round" stroke-linejoin="round"/>
<path d="M38 13.9997C38 11.4223 40.0893 9.33301 42.6666 9.33301C45.244 9.33301 47.3333 11.4223 47.3333 13.9997V39.6663C47.3333 42.2437 45.244 44.333 42.6666 44.333C40.0893 44.333 38 42.2437 38 39.6663V13.9997Z" stroke="#101828" stroke-width="2.33333" stroke-linecap="round" stroke-linejoin="round"/>
</svg>