<svg width="56" height="60" viewBox="0 0 56 60" fill="none" xmlns="http://www.w3.org/2000/svg">
<mask id="path-1-outside-1_9566_3744" maskUnits="userSpaceOnUse" x="0" y="0" width="56" height="60" fill="black">
<rect fill="white" width="56" height="60"/>
<path d="M0 0H56V56H0V0Z"/>
</mask>
<path d="M56 56V52H0V56V60H56V56Z" fill="#00C1DB" mask="url(#path-1-outside-1_9566_3744)"/>
<path d="M7.00781 25.5637L11.6745 9.33301H44.3411L48.992 25.6111C48.5297 26.9981 47.9489 28.2667 46.6745 29.1035C44.021 30.8459 39.965 29.9354 38.7772 26.372L38.5078 25.5637L38.2384 26.372C36.6429 31.1584 29.8727 31.1584 28.2772 26.372L28.0078 25.5637L27.7384 26.372C26.1429 31.1584 19.3727 31.1584 17.7772 26.372L17.5078 25.5637L17.2384 26.372C16.0506 29.9354 11.9947 30.8459 9.34115 29.1035C8.04973 28.2555 7.47552 26.9668 7.00781 25.5637Z" fill="#00C1DB" fill-opacity="0.3"/>
<path d="M9.34115 29.1035C11.9947 30.8459 16.0506 29.9354 17.2384 26.372L17.5078 25.5637L17.7772 26.372C19.3727 31.1584 26.1429 31.1584 27.7384 26.372L28.0078 25.5637L28.2772 26.372C29.8727 31.1584 36.6429 31.1584 38.2384 26.372L38.5078 25.5637L38.7772 26.372C39.965 29.9354 44.021 30.8459 46.6745 29.1035M9.34115 29.1035V44.333C9.34115 45.6217 10.3858 46.6663 11.6745 46.6663H18.6745C19.9631 46.6663 21.0078 45.6217 21.0078 44.333V37.333C21.0078 36.0443 22.0525 34.9997 23.3411 34.9997H32.6745C33.9631 34.9997 35.0078 36.0443 35.0078 37.333V44.333C35.0078 45.6217 36.0525 46.6663 37.3411 46.6663H44.3411C45.6298 46.6663 46.6745 45.6217 46.6745 44.333V29.1035M9.34115 29.1035C8.04973 28.2555 7.47552 26.9668 7.00781 25.5637L11.6745 9.33301H44.3411L48.992 25.6111C48.5297 26.9981 47.9489 28.2667 46.6745 29.1035" stroke="#101828" stroke-width="2.33333" stroke-linecap="round" stroke-linejoin="round"/>
</svg>
