<svg width="108" height="32" viewBox="0 0 108 32" fill="none" xmlns="http://www.w3.org/2000/svg">
<path d="M36.2494 21.4801C39.4358 18.4412 34.3731 10.3623 34.3731 10.3623H31.2202L27.0064 20.9614C27.0064 20.9614 33.4007 24.1968 36.2494 21.4801Z" fill="#181D27"/>
<path d="M13.4258 14.395C13.4258 14.395 22.3773 19.0698 25.9718 15.6552C28.0362 13.694 29.6403 6.94578 29.6403 6.94578L25.1876 6.52572L13.4258 14.395Z" fill="#181D27"/>
<path d="M2 7.44986C2 7.44986 9.19896 10.5454 13.8739 9.83023C18.9429 9.05478 25.1876 3.16519 25.1876 3.16519L22.2192 2.74512L2 7.44986Z" fill="#181D27"/>
<path d="M87.5329 3.10751C87.8172 3.39175 87.9593 3.76127 87.9593 4.18763C87.9593 4.64242 87.8172 4.98351 87.5329 5.26775C87.2487 5.55199 86.8792 5.69411 86.4528 5.69411C85.998 5.69411 85.6569 5.55199 85.3727 5.26775C85.0884 4.98351 84.9463 4.64242 84.9463 4.18763C84.9463 3.76127 85.0884 3.39175 85.3727 3.10751C85.6569 2.82327 85.998 2.68115 86.4528 2.68115C86.8792 2.68115 87.2487 2.82327 87.5329 3.10751Z" fill="#181D27"/>
<path d="M47.9323 10.4125H45.3173V8.28071H47.9323V4.21605H50.2631V8.28071H54.1789C55.5741 8.28071 56.8236 9.14462 57.3162 10.45L60.9601 20.1051L65.2806 8.28071H67.7535L61.0738 25.2215C60.7327 26.1026 60.4201 26.7564 60.1642 27.1828C59.88 27.6375 59.5673 27.9502 59.1694 28.1492C58.7715 28.3766 58.2314 28.4618 57.5777 28.4618H54.7921V26.33H56.867C57.3218 26.33 57.6629 26.3016 57.8903 26.1879C58.1177 26.1026 58.2883 25.9605 58.4304 25.7331C58.5725 25.5057 58.743 25.1362 58.9704 24.6246L59.7095 22.8907L55.27 11.4812C55.0192 10.8369 54.3988 10.4125 53.7074 10.4125H50.2631V18.9682C50.2631 19.5935 50.3768 20.0199 50.6042 20.2757C50.8316 20.5315 51.2579 20.6452 51.8549 20.6452H54.3846V22.777H51.7127C50.3484 22.777 49.3535 22.4928 48.785 21.8674C48.2166 21.2705 47.9323 20.3041 47.9323 18.9966V10.4125Z" fill="#181D27"/>
<path fill-rule="evenodd" clip-rule="evenodd" d="M82.2829 11.5495C81.686 10.4409 80.8617 9.58822 79.81 8.99131C78.7583 8.42283 77.5645 8.11016 76.2285 8.11016C74.1252 8.11016 72.4481 8.96289 71.2543 10.6115L70.9417 8.28071H68.9235V28.4618H71.2543V20.5599C71.7091 21.299 72.3629 21.8959 73.2156 22.3222C74.0399 22.7486 75.0347 22.9476 76.2285 22.9476C77.5361 22.9476 78.7299 22.6349 79.81 22.0096C80.8617 21.3842 81.686 20.5315 82.2829 19.3945C82.8798 18.286 83.1925 17.0069 83.1925 15.5289C83.1925 13.994 82.8798 12.6864 82.2829 11.5495ZM80.8048 15.5289C80.8048 17.1206 80.35 18.3997 79.4689 19.3945C78.5877 20.3894 77.4224 20.8726 76.0012 20.8726C75.0632 20.8726 74.2389 20.6452 73.4998 20.1904C72.7608 19.7356 72.2207 19.1103 71.8228 18.286C71.4249 17.4617 71.2259 16.5237 71.2259 15.472C71.2259 14.4487 71.4249 13.5392 71.8228 12.7433C72.2207 11.9474 72.7608 11.3221 73.4998 10.8673C74.2389 10.4125 75.0632 10.1851 76.0012 10.1851C77.4224 10.1851 78.5877 10.6968 79.4689 11.6916C80.35 12.6864 80.8048 13.9655 80.8048 15.5289Z" fill="#181D27"/>
<path fill-rule="evenodd" clip-rule="evenodd" d="M104 22.777V2.88012H101.669V10.4978C101.186 9.75876 100.532 9.19028 99.708 8.76392C98.8553 8.33755 97.8604 8.11016 96.695 8.11016C95.3591 8.11016 94.1653 8.42283 93.1136 9.04816C92.0335 9.67349 91.2092 10.5546 90.6123 11.6632C90.0154 12.8001 89.7311 14.0792 89.7311 15.5289C89.7311 17.0638 90.0154 18.3997 90.6123 19.5082C91.2092 20.6452 92.0335 21.4979 93.0852 22.0664C94.1369 22.6633 95.3307 22.9476 96.695 22.9476C98.7984 22.9476 100.447 22.1233 101.669 20.4462L101.982 22.777H104ZM101.101 18.3428C100.299 19.947 98.7011 20.8726 96.9224 20.8726C95.4728 20.8726 94.3074 20.3894 93.4263 19.3945C92.5451 18.3997 92.1187 17.1206 92.1187 15.5289C92.1187 13.9655 92.5451 12.6864 93.4263 11.6916C94.3074 10.6968 95.4728 10.1851 96.9224 10.1851C98.7218 10.1851 100.318 11.1789 101.101 12.8001C101.499 13.6244 101.698 14.5624 101.698 15.5857C101.698 16.609 101.499 17.547 101.101 18.3428Z" fill="#181D27"/>
<path d="M85.2874 8.28071H87.6182V22.777H85.2874V8.28071Z" fill="#181D27"/>
</svg>
