<svg width="108" height="33" viewBox="0 0 108 33" fill="none" xmlns="http://www.w3.org/2000/svg">
<path d="M36.2494 21.4972C39.4358 18.4583 34.3731 10.3794 34.3731 10.3794H31.2202L27.0064 20.9785C27.0064 20.9785 33.4007 24.2139 36.2494 21.4972Z" fill="white"/>
<path d="M13.4258 14.412C13.4258 14.412 22.3773 19.0869 25.9718 15.6722C28.0362 13.7111 29.6403 6.96287 29.6403 6.96287L25.1876 6.54281L13.4258 14.412Z" fill="white"/>
<path d="M2 7.46695C2 7.46695 9.19896 10.5625 13.8739 9.84732C18.9429 9.07187 25.1876 3.18228 25.1876 3.18228L22.2192 2.76221L2 7.46695Z" fill="white"/>
<path d="M87.5329 3.1246C87.8172 3.40884 87.9593 3.77836 87.9593 4.20472C87.9593 4.65951 87.8172 5.0006 87.5329 5.28484C87.2487 5.56908 86.8792 5.7112 86.4528 5.7112C85.998 5.7112 85.6569 5.56908 85.3727 5.28484C85.0884 5.0006 84.9463 4.65951 84.9463 4.20472C84.9463 3.77836 85.0884 3.40884 85.3727 3.1246C85.6569 2.84036 85.998 2.69824 86.4528 2.69824C86.8792 2.69824 87.2487 2.84036 87.5329 3.1246Z" fill="white"/>
<path d="M47.9323 10.4296H45.3173V8.2978H47.9323V4.23314H50.2631V8.2978H54.1789C55.5741 8.2978 56.8236 9.16171 57.3162 10.4671L60.9601 20.1222L65.2806 8.2978H67.7535L61.0738 25.2386C60.7327 26.1197 60.4201 26.7735 60.1642 27.1998C59.88 27.6546 59.5673 27.9673 59.1694 28.1663C58.7715 28.3937 58.2314 28.4789 57.5777 28.4789H54.7921V26.3471H56.867C57.3218 26.3471 57.6629 26.3187 57.8903 26.205C58.1177 26.1197 58.2883 25.9776 58.4304 25.7502C58.5725 25.5228 58.743 25.1533 58.9704 24.6417L59.7095 22.9078L55.27 11.4983C55.0192 10.854 54.3988 10.4296 53.7074 10.4296H50.2631V18.9853C50.2631 19.6106 50.3768 20.037 50.6042 20.2928C50.8316 20.5486 51.2579 20.6623 51.8549 20.6623H54.3846V22.7941H51.7127C50.3484 22.7941 49.3535 22.5099 48.785 21.8845C48.2166 21.2876 47.9323 20.3212 47.9323 19.0137V10.4296Z" fill="white"/>
<path fill-rule="evenodd" clip-rule="evenodd" d="M82.2829 11.5666C81.686 10.458 80.8617 9.6053 79.81 9.0084C78.7583 8.43992 77.5645 8.12725 76.2285 8.12725C74.1252 8.12725 72.4481 8.97997 71.2543 10.6286L70.9417 8.2978H68.9235V28.4789H71.2543V20.577C71.7091 21.316 72.3629 21.913 73.2156 22.3393C74.0399 22.7657 75.0347 22.9646 76.2285 22.9646C77.5361 22.9646 78.7299 22.652 79.81 22.0267C80.8617 21.4013 81.686 20.5486 82.2829 19.4116C82.8798 18.3031 83.1925 17.024 83.1925 15.5459C83.1925 14.011 82.8798 12.7035 82.2829 11.5666ZM80.8048 15.5459C80.8048 17.1377 80.35 18.4168 79.4689 19.4116C78.5877 20.4065 77.4224 20.8897 76.0012 20.8897C75.0632 20.8897 74.2389 20.6623 73.4998 20.2075C72.7608 19.7527 72.2207 19.1274 71.8228 18.3031C71.4249 17.4788 71.2259 16.5408 71.2259 15.4891C71.2259 14.4658 71.4249 13.5563 71.8228 12.7604C72.2207 11.9645 72.7608 11.3392 73.4998 10.8844C74.2389 10.4296 75.0632 10.2022 76.0012 10.2022C77.4224 10.2022 78.5877 10.7138 79.4689 11.7087C80.35 12.7035 80.8048 13.9826 80.8048 15.5459Z" fill="white"/>
<path fill-rule="evenodd" clip-rule="evenodd" d="M104 22.7941V2.89721H101.669V10.5149C101.186 9.77585 100.532 9.20737 99.708 8.78101C98.8553 8.35464 97.8604 8.12725 96.695 8.12725C95.3591 8.12725 94.1653 8.43992 93.1136 9.06525C92.0335 9.69058 91.2092 10.5717 90.6123 11.6803C90.0154 12.8172 89.7311 14.0963 89.7311 15.5459C89.7311 17.0809 90.0154 18.4168 90.6123 19.5253C91.2092 20.6623 92.0335 21.515 93.0852 22.0835C94.1369 22.6804 95.3307 22.9646 96.695 22.9646C98.7984 22.9646 100.447 22.1403 101.669 20.4633L101.982 22.7941H104ZM101.101 18.3599C100.299 19.9641 98.7011 20.8897 96.9224 20.8897C95.4728 20.8897 94.3074 20.4065 93.4263 19.4116C92.5451 18.4168 92.1187 17.1377 92.1187 15.5459C92.1187 13.9826 92.5451 12.7035 93.4263 11.7087C94.3074 10.7138 95.4728 10.2022 96.9224 10.2022C98.7218 10.2022 100.318 11.196 101.101 12.8172C101.499 13.6415 101.698 14.5795 101.698 15.6028C101.698 16.6261 101.499 17.5641 101.101 18.3599Z" fill="white"/>
<path d="M85.2874 8.2978H87.6182V22.7941H85.2874V8.2978Z" fill="white"/>
</svg>
